<svg width="2184" height="904" xmlns="http://www.w3.org/2000/svg" xmlns:xlink="http://www.w3.org/1999/xlink" xml:space="preserve" overflow="hidden"><g transform="translate(-155 -1184)"><rect x="325.5" y="1771.5" width="2011" height="85.0002" stroke="#E2F0D9" stroke-width="4.58333" stroke-miterlimit="8" fill="#E2F0D9"/><path d="M0 0 632.935 558.949" stroke="#000000" stroke-width="10.3125" stroke-miterlimit="8" fill="none" fill-rule="evenodd" transform="matrix(1 0 0 -1 1581 1770.95)"/><path d="M1098.94 1770.95 466 1212" stroke="#000000" stroke-width="10.3125" stroke-miterlimit="8" fill="none" fill-rule="evenodd"/><path d="M889.764 1744.67 887.923 1739.86 886.282 1730.74 885.528 1721.63 885.635 1712.56 886.586 1703.57 888.367 1694.74 890.959 1686.13 894.349 1677.81 898.519 1669.84 903.454 1662.28 909.162 1655.18 919.203 1646.27 920.724 1647.98 910.755 1656.83 910.888 1656.69 905.276 1663.67 905.342 1663.58 900.468 1671.05 900.524 1670.95 896.405 1678.83 896.451 1678.73 893.102 1686.95 893.138 1686.85 890.576 1695.35 890.602 1695.25 888.843 1703.97 888.86 1703.86 887.919 1712.74 887.926 1712.64 887.82 1721.61 887.816 1721.5 888.561 1730.5 888.547 1730.39 890.159 1739.35 890.101 1739.14 891.904 1743.84ZM901.949 1734.95 899.229 1765.58 876.361 1745.03ZM908.475 1638.29 938.962 1634.31 923.853 1661.09Z" fill="#ED7D31"/><path d="M81.6079 0.0920039 86.6436-0.960866 95.9099-1.12887 105.02-0.424 113.965 1.12646 122.685 3.4962 131.117 6.65905 139.202 10.5889 146.878 15.2597 154.085 20.6455 160.76 26.7203 166.869 33.4871 174.065 44.8183 172.131 46.0469 164.986 34.7974 165.103 34.9509 159.096 28.2976 159.176 28.3773 152.583 22.3776 152.668 22.448 145.55 17.128 145.64 17.1891 138.057 12.5747 138.152 12.6264 130.164 8.74359 130.262 8.7859 121.93 5.66073 122.032 5.6936 113.416 3.352 113.521 3.37528 104.682 1.84324 104.789 1.85666 95.7876 1.16018 95.8968 1.16341 86.7932 1.32847 87.0069 1.3044 82.077 2.33517ZM89.2562 13.6677 59.4543 6.10708 83.384-13.198ZM183.65 35.4969 182.725 66.2289 158.695 47.0497Z" fill="#ED7D31" transform="matrix(0.159175 -0.98725 -0.98725 -0.159175 1783.3 1825.25)"/><path d="M325 1212 2336.03 1212" stroke="#000000" stroke-width="2.29167" stroke-miterlimit="8" stroke-dasharray="18.3333 6.875" fill="none" fill-rule="evenodd"/><path d="M326.146 1234.92 326.146 1748.03 323.854 1748.03 323.854 1234.92ZM311.25 1239.5 325 1212 338.75 1239.5ZM338.75 1743.45 325 1770.95 311.25 1743.45Z" fill="#ED7D31"/><text fill="#ED7D31" font-family="Cambria Math,Cambria Math_MSFontService,sans-serif" font-weight="400" font-size="110" transform="matrix(1 0 0 1 221.177 1515)">h</text><path d="M796.042 1687.77C796.436 1708.65 801.001 1719.09 809.738 1719.09 818.475 1719.09 822.915 1708.65 823.058 1687.77ZM809.577 1651.47C800.84 1651.47 796.328 1661.74 796.042 1682.3L823.005 1682.3C822.503 1661.74 818.027 1651.47 809.577 1651.47ZM809.792 1647.22C817.633 1647.22 823.452 1650.25 827.248 1656.3 831.043 1662.35 832.941 1671.7 832.941 1684.34 832.941 1697.37 830.936 1707.14 826.925 1713.64 822.915 1720.14 816.917 1723.39 808.932 1723.39 801.055 1723.39 795.29 1720.31 791.637 1714.17 787.985 1708.03 786.159 1698.66 786.159 1686.06 786.159 1673.42 788.164 1663.78 792.174 1657.16 796.185 1650.54 802.057 1647.22 809.792 1647.22Z" fill="#ED7D31" fill-rule="evenodd"/><text fill="#000000" fill-opacity="0" font-family="Arial,Arial_MSFontService,sans-serif" font-size="76.1621" x="786.159" y="1713.86">θ</text><text font-family="Calibri Light,Calibri Light_MSFontService,sans-serif" font-weight="300" font-size="110" transform="matrix(1 0 0 1 1145 1355)">Ground </text><text font-family="Calibri Light,Calibri Light_MSFontService,sans-serif" font-weight="300" font-size="110" transform="matrix(1 0 0 1 1130.22 1487)">surfaces </text><path d="M1099 1769 1580.92 1769" stroke="#000000" stroke-width="10.3125" stroke-miterlimit="8" fill="none" fill-rule="evenodd"/><path d="M0.594068-0.979804 154.789 92.5104 153.601 94.47-0.594068 0.979804ZM157.404 79.3563 173.791 105.372 143.146 102.872Z" transform="matrix(-1 0 0 1 1087.79 1475)"/><path d="M1.14583-0.00123257 1.33483 175.696-0.956836 175.698-1.14583 0.00123257ZM13.9341 171.099 0.213648 198.614-13.5659 171.128Z" transform="matrix(-1 0 0 1 1320.21 1550)"/><path d="M1554.43 1470.94 1743.15 1548.25 1742.28 1550.37 1553.57 1473.06ZM1743.68 1534.84 1763.92 1557.99 1733.26 1560.29Z"/><text font-family="Calibri Light,Calibri Light_MSFontService,sans-serif" font-weight="300" font-size="110" transform="matrix(1 0 0 1 510.79 1993)">Terrain</text><path d="M0.650353-0.943385 119.958 81.3049 118.657 83.1917-0.650353 0.943385ZM123.338 68.3263 138.175 95.2554 107.729 90.9675Z" transform="matrix(1 0 0 -1 912 1956.26)"/></g></svg>